<svg id="レイヤー_1" data-name="レイヤー 1" xmlns="http://www.w3.org/2000/svg" viewBox="0 0 20.14 12.14">
  <defs>
    <style>
      .cls-1 {
        fill: #e84c4c;
      }
    </style>
  </defs>
  <title>arrow _bottom</title>
  <g>
    <path class="cls-1" d="M19.56.59a2,2,0,0,0-2.83,0L10.07,7.24l1.49,1.49a2,2,0,0,1,.35,2.33l7.65-7.65A2,2,0,0,0,19.56.59Z"/>
    <path class="cls-1" d="M8.24,11.06a1.88,1.88,0,0,0,.35.5,2,2,0,0,0,1.48.57,1.94,1.94,0,0,1-1.34-.57Z"/>
    <path class="cls-1" d="M11.56,8.73,10.07,7.24,3.41.59A2,2,0,0,0,.59.59a2,2,0,0,0,0,2.82l7.65,7.65.49.5a1.94,1.94,0,0,0,1.34.57,2,2,0,0,0,1.49-.57,2.49,2.49,0,0,0,.35-.5A2,2,0,0,0,11.56,8.73Z"/>
  </g>
</svg>
