<svg id="レイヤー_1" data-name="レイヤー 1" xmlns="http://www.w3.org/2000/svg" viewBox="0 0 324 324">
  <defs>
    <style>
      .cls-1 {
        fill: #e84c4c;
      }
    </style>
  </defs>
  <title>circle_s</title>
  <path class="cls-1" d="M165.7,323.27l-.1-4c5.26-.14,10.55-.54,15.73-1.19l.5,3.94C176.52,322.72,171.09,323.13,165.7,323.27Zm-24.23-1.17a158.4,158.4,0,0,1-15.93-2.8l.88-3.87A156.29,156.29,0,0,0,142,318.15Zm64.13-4.89-1.09-3.83a156.44,156.44,0,0,0,15-5.07l1.46,3.69A158.72,158.72,0,0,1,205.6,317.21Zm-103.26-5.08c-5-2-10-4.23-14.73-6.7l1.83-3.53a157.2,157.2,0,0,0,14.36,6.53Zm140.37-10.76-2-3.43c4.51-2.65,9-5.56,13.2-8.65l2.34,3.22A160.62,160.62,0,0,1,242.71,301.37ZM67,292.69a161.59,161.59,0,0,1-12.6-10.15l2.64-3c3.92,3.49,8.06,6.82,12.3,9.9Zm207.78-15.9-2.8-2.83c3.73-3.68,7.31-7.6,10.66-11.64l3.06,2.53C282.22,269,278.55,273,274.73,276.79ZM37.5,265.09c-3.44-4.14-6.7-8.5-9.7-12.95l3.3-2.22c2.92,4.34,6.11,8.59,9.46,12.63Zm262.17-20-3.41-2a157.56,157.56,0,0,0,7.43-13.93l3.6,1.69A160.08,160.08,0,0,1,299.67,245Zm-283.87-14a160.59,160.59,0,0,1-6.17-15l3.75-1.33a154.12,154.12,0,0,0,6,14.58Zm300.13-23L312.12,207c1.48-5,2.73-10.19,3.71-15.34l3.9.74A157.93,157.93,0,0,1,315.93,208.08ZM3.28,192.69a161.58,161.58,0,0,1-2.24-16l4-.35A154.59,154.59,0,0,0,7.19,192Zm319.15-24.44-4-.15c.07-1.93.1-3.89.1-5.84,0-3.3-.1-6.65-.31-9.94l4-.25c.21,3.38.32,6.81.32,10.19C322.54,164.26,322.5,166.27,322.43,168.25ZM4.67,152.66l-4-.24c.33-5.38.93-10.79,1.78-16.08l3.93.63C5.58,142.13,5,147.41,4.67,152.66ZM315,128.88a156.17,156.17,0,0,0-4.11-15.23l3.78-1.23A161.37,161.37,0,0,1,318.9,128ZM12,114l-3.79-1.22a159.52,159.52,0,0,1,5.75-15.13l3.64,1.6A155.23,155.23,0,0,0,12,114Zm290-22.2c-2.36-4.68-5-9.3-7.8-13.73l3.36-2.13c2.88,4.54,5.57,9.27,8,14.07ZM28.67,78.32l-3.36-2.13c2.88-4.54,6-9,9.33-13.22l3.13,2.46A156.66,156.66,0,0,0,28.67,78.32ZM279.94,59.1c-3.44-4-7.13-7.78-10.95-11.37l2.72-2.9c3.92,3.68,7.7,7.6,11.23,11.65ZM53.73,48,51,45.06c3.91-3.69,8-7.22,12.31-10.5l2.43,3.15A156.33,156.33,0,0,0,53.73,48ZM250.57,32.87a156.86,156.86,0,0,0-13.43-8.3l1.92-3.49c4.71,2.6,9.34,5.46,13.77,8.51ZM85.51,24.73l-1.92-3.48a157.38,157.38,0,0,1,14.53-7.11l1.57,3.65A156.19,156.19,0,0,0,85.51,24.73Zm130.1-10a156.44,156.44,0,0,0-15.08-4.68l1-3.85A157.89,157.89,0,0,1,217,11Zm-93.53-4.59-1-3.86a161.27,161.27,0,0,1,15.85-3.24l.6,3.93A156.11,156.11,0,0,0,122.08,10.16ZM177.24,6c-5.21-.52-10.51-.79-15.77-.79h-.34l0-4h.36c5.39,0,10.83.27,16.16.8Z"/>
</svg>
