<svg id="レイヤー_1" data-name="レイヤー 1" xmlns="http://www.w3.org/2000/svg" viewBox="0 0 644 644">
  <defs>
    <style>
      .cls-1 {
        fill: #e84c4c;
      }
    </style>
  </defs>
  <title>circle_m</title>
  <path class="cls-1" d="M321.88,642.62h-.33c-5.25,0-10.56-.13-15.78-.38l.19-4c5.16.25,10.41.37,15.59.37h.33ZM346,641.7l-.3-4c5.28-.4,10.6-.94,15.84-1.6l.5,4C356.77,640.75,351.37,641.3,346,641.7Zm-64.34-1.53c-5.31-.66-10.68-1.46-15.94-2.39l.69-3.92c5.2.91,10.49,1.7,15.74,2.35Zm104.23-4-.8-3.91c5.18-1,10.4-2.25,15.51-3.57l1,3.86C396.44,633.87,391.16,635.09,385.92,636.16Zm-143.8-3.45c-5.19-1.32-10.41-2.8-15.51-4.38l1.18-3.8c5,1.56,10.19,3,15.31,4.32Zm182.67-7.07-1.28-3.77c5-1.7,10-3.55,14.93-5.5l1.47,3.7C434.94,622.05,429.85,623.92,424.79,625.64Zm-221-5.33c-5-2-10-4.1-14.87-6.31l1.65-3.63c4.82,2.19,9.75,4.28,14.68,6.23Zm258.22-10-1.74-3.58c4.74-2.31,9.48-4.78,14.1-7.32l1.92,3.48C471.61,605.48,466.8,608,462,610.31Zm-294.71-7.16c-4.7-2.58-9.39-5.31-13.94-8.12l2.09-3.39c4.49,2.77,9.13,5.47,13.77,8ZM497,590.43l-2.18-3.33c4.41-2.89,8.81-5.93,13.09-9l2.34,3.22C505.91,584.43,501.45,587.51,497,590.43Zm-363.72-8.87c-4.33-3.14-8.64-6.44-12.81-9.8l2.5-3.1c4.12,3.32,8.38,6.57,12.65,9.68Zm396-15.24-2.58-3c4-3.43,8-7,11.86-10.61l2.73,2.9C537.34,559.24,533.3,562.85,529.22,566.32Zm-427-10.42c-3.9-3.66-7.76-7.47-11.48-11.32l2.87-2.76c3.67,3.8,7.48,7.56,11.33,11.17Zm456-17.52-2.94-2.69c3.57-3.91,7.09-8,10.45-12l3.07,2.54C565.39,530.33,561.83,534.42,558.21,538.38Zm-483.6-11.8c-3.42-4.12-6.78-8.38-10-12.65l3.19-2.39C71,515.76,74.3,520,77.67,524ZM583.5,507l-3.25-2.3c3-4.31,6-8.76,8.87-13.23l3.37,2.14C589.61,498.15,586.59,502.66,583.5,507Zm-532.61-13c-2.88-4.5-5.67-9.14-8.31-13.78l3.46-2c2.61,4.59,5.37,9.17,8.21,13.62Zm553.78-21.31-3.51-1.88c2.49-4.67,4.9-9.46,7.15-14.25l3.61,1.7C609.63,463.16,607.2,468,604.67,472.74ZM31.43,458.83c-2.28-4.82-4.47-9.77-6.51-14.71l3.69-1.52c2,4.88,4.17,9.77,6.42,14.53Zm590-22.79-3.72-1.42c1.89-4.95,3.67-10,5.3-15l3.79,1.23C625.1,425.9,623.29,431,621.38,436ZM16.56,421.44C14.9,416.36,13.35,411.16,12,406l3.85-1c1.38,5.09,2.91,10.22,4.55,15.25Zm616.76-23.9-3.87-.93c1.24-5.14,2.37-10.37,3.35-15.56l3.91.74C635.72,387,634.58,392.34,633.32,397.54ZM6.51,382.45c-1-5.24-1.88-10.59-2.62-15.9L7.83,366c.74,5.24,1.61,10.52,2.6,15.7ZM640.3,357.89l-4-.45c.59-5.24,1-10.57,1.37-15.85l4,.24C641.36,347.18,640.89,352.58,640.3,357.89ZM1.45,342.5c-.33-5.33-.54-10.75-.62-16.1l4-.06c.07,5.29.28,10.64.61,15.91Zm636.84-24.78c-.07-5.29-.27-10.64-.6-15.91l4-.25c.33,5.33.53,10.75.6,16.11ZM5.37,302.48l-4-.24c.33-5.36.79-10.76,1.38-16.06l4,.44C6.15,291.85,5.69,297.19,5.37,302.48Zm629.94-24.42c-.72-5.23-1.59-10.51-2.58-15.7l3.92-.75c1,5.26,1.87,10.61,2.61,15.91ZM10.24,263l-3.91-.73c1-5.26,2.12-10.56,3.37-15.76l3.88.93C12.34,252.59,11.22,257.82,10.24,263ZM627.39,239.1c-1.38-5.11-2.91-10.25-4.54-15.26l3.79-1.23c1.65,5.08,3.2,10.27,4.6,15.45ZM20,224.47l-3.79-1.22C17.9,218.14,19.7,213,21.6,208l3.73,1.42C23.45,214.36,21.67,219.43,20,224.47Zm594.58-23c-2-4.88-4.17-9.77-6.41-14.54l3.6-1.7c2.28,4.83,4.46,9.78,6.49,14.72Zm-580-14L31,185.73c2.28-4.86,4.71-9.71,7.23-14.44l3.52,1.88C39.3,177.83,36.9,182.63,34.65,187.42Zm562.57-21.69c-2.61-4.6-5.36-9.18-8.19-13.63l3.36-2.14c2.86,4.51,5.66,9.15,8.3,13.8ZM53.81,152.52l-3.37-2.13c2.86-4.52,5.88-9,9-13.4l3.25,2.3C59.62,143.61,56.64,148.06,53.81,152.52Zm521.66-20.06c-3.15-4.22-6.46-8.43-9.84-12.5l3.07-2.54c3.42,4.12,6.77,8.38,10,12.66ZM77.17,120.31l-3.07-2.53c3.4-4.12,7-8.22,10.57-12.17l2.94,2.68C84.05,112.2,80.53,116.25,77.17,120.31Zm472.56-18.15c-3.67-3.82-7.49-7.58-11.33-11.19l2.73-2.9c3.89,3.65,7.75,7.46,11.47,11.32ZM104.37,91.28l-2.73-2.9c3.88-3.66,7.92-7.28,12-10.75l2.59,3C112.2,84.09,108.21,87.66,104.37,91.28Zm416-16C516.29,72,512,68.7,507.76,65.59l2.35-3.22c4.32,3.15,8.63,6.45,12.79,9.81ZM135,65.87l-2.35-3.22c4.33-3.15,8.78-6.24,13.24-9.16L148,56.82C143.62,59.71,139.22,62.75,135,65.87Zm353-13.6c-4.5-2.78-9.13-5.48-13.76-8l1.92-3.49c4.69,2.59,9.38,5.33,13.93,8.14ZM168.46,44.49,166.53,41c4.67-2.58,9.47-5.08,14.27-7.43l1.75,3.58C177.81,39.47,173.07,41.94,168.46,44.49Zm284.37-11c-4.81-2.2-9.75-4.3-14.67-6.25l1.47-3.71c5,2,10,4.11,14.86,6.33Zm-248.47-6-1.47-3.7c5-2,10.05-3.86,15.11-5.59L219.29,22C214.29,23.68,209.27,25.54,204.36,27.49Zm211.27-8.18c-5.05-1.57-10.2-3-15.32-4.34l1-3.86c5.18,1.33,10.4,2.81,15.51,4.39ZM242.16,15.14l-1-3.86c5.18-1.34,10.46-2.56,15.71-3.63l.8,3.9C252.49,12.61,247.27,13.82,242.16,15.14ZM377,9.94c-5.2-.92-10.49-1.72-15.74-2.37l.5-4c5.31.67,10.67,1.48,15.93,2.4ZM281.21,7.65l-.5-3.95c5.3-.68,10.7-1.22,16-1.63l.31,4C291.78,6.44,286.45,7,281.21,7.65ZM337.46,5.5c-5.26-.26-10.62-.39-15.91-.39h-.65v-4h.64c5.37,0,10.79.14,16.12.4Z"/>
</svg>
